<?xml version="1.0" encoding="UTF-8" standalone="no"?>
<!-- Created with Inkscape (http://www.inkscape.org/) -->

<svg
   xmlns:dc="http://purl.org/dc/elements/1.1/"
   xmlns:cc="http://creativecommons.org/ns#"
   xmlns:rdf="http://www.w3.org/1999/02/22-rdf-syntax-ns#"
   xmlns:svg="http://www.w3.org/2000/svg"
   xmlns="http://www.w3.org/2000/svg"
   xmlns:sodipodi="http://sodipodi.sourceforge.net/DTD/sodipodi-0.dtd"
   xmlns:inkscape="http://www.inkscape.org/namespaces/inkscape"
   width="1024"
   height="1024"
   viewBox="0 0 270.93333 270.93333"
   version="1.1"
   id="svg8"
   inkscape:version="0.92.3 (2405546, 2018-03-11)"
   sodipodi:docname="icon.svg"
   inkscape:export-filename="/home/chris/PycharmProjects/heroscript/design/icon.png"
   inkscape:export-xdpi="96"
   inkscape:export-ydpi="96">
  <defs
     id="defs2" />
  <sodipodi:namedview
     id="base"
     pagecolor="#ffffff"
     bordercolor="#666666"
     borderopacity="1.0"
     inkscape:pageopacity="0.0"
     inkscape:pageshadow="2"
     inkscape:zoom="0.35"
     inkscape:cx="690.12165"
     inkscape:cy="560"
     inkscape:document-units="mm"
     inkscape:current-layer="layer1"
     showgrid="false"
     units="px"
     inkscape:snap-global="false"
     inkscape:object-paths="true"
     inkscape:snap-object-midpoints="true"
     inkscape:window-width="1920"
     inkscape:window-height="1015"
     inkscape:window-x="0"
     inkscape:window-y="36"
     inkscape:window-maximized="1" />
  <metadata
     id="metadata5">
    <rdf:RDF>
      <cc:Work
         rdf:about="">
        <dc:format>image/svg+xml</dc:format>
        <dc:type
           rdf:resource="http://purl.org/dc/dcmitype/StillImage" />
        <dc:title></dc:title>
      </cc:Work>
    </rdf:RDF>
  </metadata>
  <g
     inkscape:label="Ebene 1"
     inkscape:groupmode="layer"
     id="layer1"
     transform="translate(0,-26.066729)"
     style="display:inline">
    <path
       style="color:#000000;font-style:normal;font-variant:normal;font-weight:normal;font-stretch:normal;font-size:medium;line-height:normal;font-family:sans-serif;font-variant-ligatures:normal;font-variant-position:normal;font-variant-caps:normal;font-variant-numeric:normal;font-variant-alternates:normal;font-feature-settings:normal;text-indent:0;text-align:start;text-decoration:none;text-decoration-line:none;text-decoration-style:solid;text-decoration-color:#000000;letter-spacing:normal;word-spacing:normal;text-transform:none;writing-mode:lr-tb;direction:ltr;text-orientation:mixed;dominant-baseline:auto;baseline-shift:baseline;text-anchor:start;white-space:normal;shape-padding:0;clip-rule:nonzero;display:inline;overflow:visible;visibility:visible;opacity:1;isolation:auto;mix-blend-mode:normal;color-interpolation:sRGB;color-interpolation-filters:linearRGB;solid-color:#000000;solid-opacity:1;vector-effect:none;fill:#0095f6;fill-opacity:1;fill-rule:nonzero;stroke:#0095f6;stroke-width:7.9375;stroke-linecap:butt;stroke-linejoin:miter;stroke-miterlimit:4;stroke-dasharray:none;stroke-dashoffset:0;stroke-opacity:1;color-rendering:auto;image-rendering:auto;shape-rendering:auto;text-rendering:auto;enable-background:accumulate"
       d="m 156.39258,69.332031 c -20.23627,0 -38.92445,1.47163 -52.91602,4.691407 -6.995783,1.609888 -12.822961,3.618772 -17.253904,6.386718 -4.430943,2.767946 -7.792968,6.808447 -7.792968,11.777344 h 7.9375 c 0,-1.502368 0.880074,-3.058126 4.060546,-5.044922 3.180473,-1.986795 8.335349,-3.888678 14.828126,-5.382812 12.98555,-2.98827 31.29289,-4.490235 51.13672,-4.490235 19.54403,0 36.86999,3.700651 49.01953,8.820313 6.07477,2.559831 10.84628,5.48973 13.89648,8.279297 3.05021,2.789567 4.17579,5.249988 4.17579,6.902339 h 7.9375 c 0,-4.818905 -2.74687,-9.091546 -6.75782,-12.759761 -4.01094,-3.668215 -9.48982,-6.921416 -16.16992,-9.736328 -13.36021,-5.629825 -31.5655,-9.44336 -52.10156,-9.44336 z"
       id="path3713"
       inkscape:connector-curvature="0" />
    <path
       style="color:#000000;font-style:normal;font-variant:normal;font-weight:normal;font-stretch:normal;font-size:medium;line-height:normal;font-family:sans-serif;font-variant-ligatures:normal;font-variant-position:normal;font-variant-caps:normal;font-variant-numeric:normal;font-variant-alternates:normal;font-feature-settings:normal;text-indent:0;text-align:start;text-decoration:none;text-decoration-line:none;text-decoration-style:solid;text-decoration-color:#000000;letter-spacing:normal;word-spacing:normal;text-transform:none;writing-mode:lr-tb;direction:ltr;text-orientation:mixed;dominant-baseline:auto;baseline-shift:baseline;text-anchor:start;white-space:normal;shape-padding:0;clip-rule:nonzero;display:inline;overflow:visible;visibility:visible;opacity:1;isolation:auto;mix-blend-mode:normal;color-interpolation:sRGB;color-interpolation-filters:linearRGB;solid-color:#000000;solid-opacity:1;vector-effect:none;fill:#0095f6;fill-opacity:1;fill-rule:nonzero;stroke:#0095f6;stroke-width:7.9369998;stroke-linecap:square;stroke-linejoin:bevel;stroke-miterlimit:4;stroke-dasharray:none;stroke-dashoffset:0;stroke-opacity:1;color-rendering:auto;image-rendering:auto;shape-rendering:auto;text-rendering:auto;enable-background:accumulate"
       d="m 86.349609,91.816406 -7.917968,0.345703 -0.779297,117.359371 h -0.02539 v 3.94336 0.0254 l -0.02539,3.94336 0.726563,0.004 c 1.088058,3.25581 3.403899,6.17714 6.410156,8.72852 4.17667,3.54469 9.842488,6.63015 16.705079,9.28515 13.72518,5.31002 32.27365,8.82031 52.77148,8.82031 20.44718,0 38.89186,-3.11059 52.54493,-8.01953 6.82653,-2.45447 12.46516,-5.33639 16.64062,-8.74023 2.98432,-2.43282 5.29088,-5.28747 6.39453,-8.49219 l 0.70313,0.006 0.0312,-3.96875 v -0.0312 l 0.89258,-113.72266 -7.39258,-2.039058 c -3.83568,6.539548 -14.05737,12.009588 -27.80078,15.107418 -13.74342,3.09784 -30.68418,3.97781 -47.09766,2.83789 -16.41348,-1.13992 -32.33966,-4.31454 -44.00195,-9.01367 -5.831152,-2.34956 -10.578244,-5.08951 -13.765629,-7.9375 -3.187385,-2.847983 -4.748112,-5.624177 -5.013672,-8.441404 z m -0.07617,14.501954 c 4.163109,3.66937 9.569806,6.6922 15.888672,9.23828 12.81517,5.16366 29.35431,8.38524 46.41797,9.57031 17.06366,1.18508 34.61143,0.31807 49.39258,-3.01367 10.06176,-2.26797 18.93084,-5.64724 25.43164,-10.6582 l -0.78125,99.60156 h -0.0312 v 3.9375 0.0312 c 0,1.58669 -1.08003,3.78484 -4.20703,6.33399 -3.12701,2.54914 -8.06046,5.17662 -14.31055,7.42382 -12.50018,4.49442 -30.22646,7.55274 -49.85938,7.55274 -19.58226,0 -37.34428,-3.42637 -49.9082,-8.28711 -6.28196,-2.43037 -11.254902,-5.23753 -14.43164,-7.9336 -3.176738,-2.69606 -4.310546,-5.0522 -4.310547,-6.625 z"
       id="path4524"
       inkscape:connector-curvature="0" />
    <path
       style="fill:#00009a;fill-opacity:1;stroke:none;stroke-width:5;stroke-linecap:round;stroke-linejoin:bevel;stroke-miterlimit:4;stroke-dasharray:none;stroke-opacity:1"
       d="m 83.910735,111.79173 c 57.596905,25.89138 131.374225,12.43471 139.851165,3.77976 2.45252,-2.50402 0.75595,105.83334 0.75595,105.83334 -54.67612,27.34403 -89.85798,29.49894 -142.11902,-2.26786 -9.606382,-5.83923 1.511905,-107.34524 1.511905,-107.34524 z"
       id="rect4590"
       inkscape:connector-curvature="0"
       sodipodi:nodetypes="sssss" />
    <path
       style="color:#000000;font-style:normal;font-variant:normal;font-weight:normal;font-stretch:normal;font-size:medium;line-height:normal;font-family:sans-serif;font-variant-ligatures:normal;font-variant-position:normal;font-variant-caps:normal;font-variant-numeric:normal;font-variant-alternates:normal;font-feature-settings:normal;text-indent:0;text-align:start;text-decoration:none;text-decoration-line:none;text-decoration-style:solid;text-decoration-color:#000000;letter-spacing:normal;word-spacing:normal;text-transform:none;writing-mode:lr-tb;direction:ltr;text-orientation:mixed;dominant-baseline:auto;baseline-shift:baseline;text-anchor:start;white-space:normal;shape-padding:0;clip-rule:nonzero;display:inline;overflow:visible;visibility:visible;opacity:1;isolation:auto;mix-blend-mode:normal;color-interpolation:sRGB;color-interpolation-filters:linearRGB;solid-color:#000000;solid-opacity:1;vector-effect:none;fill:#00009a;fill-opacity:1;fill-rule:nonzero;stroke:#0095f6;stroke-width:5;stroke-linecap:round;stroke-linejoin:bevel;stroke-miterlimit:4;stroke-dasharray:none;stroke-dashoffset:0;stroke-opacity:1;color-rendering:auto;image-rendering:auto;shape-rendering:auto;text-rendering:auto;enable-background:accumulate"
       d="m 86.301618,125.49614 c -29.011355,-5.05805 -50.593375,11.17932 -50.416015,32.87803 0.10116,12.37518 8.44983,23.9474 19.66992,32.41603 11.2201,8.46865 25.866177,14.60508 41.962892,17.21197 a 8.6070852,7.3214689 47.31473 1 0 0,-15.875 c -13.558281,-2.19578 -25.68938,-7.5097 -33.867182,-13.68211 -8.17781,-6.17239 -11.84816,-12.43386 -11.89063,-17.62882 -0.0943,-11.53237 16.7815,-26.95893 44.126952,-16.79303 a 8.6070852,7.3214689 47.31473 1 0 3.259766,-15.00919 c -4.405957,-1.63795 -8.701223,-2.7953 -12.845703,-3.51788 z"
       id="path4541"
       inkscape:connector-curvature="0" />
    <path
       style="fill:#00009a;fill-opacity:1;stroke:none;stroke-width:5;stroke-linecap:round;stroke-linejoin:bevel;stroke-miterlimit:4;stroke-dasharray:none;stroke-opacity:1"
       d="m 223.00593,97.05066 c 1e-5,16.07379 -34.10543,25.41293 -71.4375,22.3006 -39.16359,-3.26503 -60.098219,-6.98276 -65.38988,-26.080362 -4.292089,-15.490145 28.38371,-25.307177 67.65774,-21.544642 39.45384,3.779762 69.16964,9.250617 69.16964,25.324404 z"
       id="path4593"
       inkscape:connector-curvature="0"
       sodipodi:nodetypes="sssss" />
  </g>
  <g
     inkscape:groupmode="layer"
     id="layer2"
     inkscape:label="Ebene 2"
     style="display:inline">
    <g
       style="display:inline"
       id="g4537"
       transform="rotate(-17.019849,-5.3048474,-576.13885)">
      <rect
         ry="9.0714283"
         y="146.56554"
         x="-68.035713"
         height="67.279762"
         width="51.404762"
         id="rect4526"
         style="fill:#0070e4;fill-opacity:1;stroke:none;stroke-width:7.9375;stroke-miterlimit:4;stroke-dasharray:none;stroke-opacity:1" />
      <text
         transform="scale(0.72711999,1.3752888)"
         id="text4532"
         y="146.8654"
         x="-86.964233"
         style="font-style:normal;font-variant:normal;font-weight:bold;font-stretch:normal;font-size:36.12380219px;line-height:1.25;font-family:sans-serif;-inkscape-font-specification:'sans-serif, Bold';font-variant-ligatures:normal;font-variant-caps:normal;font-variant-numeric:normal;font-feature-settings:normal;text-align:start;letter-spacing:0px;word-spacing:0px;writing-mode:lr-tb;text-anchor:start;fill:#c4e4ff;fill-opacity:1;stroke:none;stroke-width:0.75257921;"
         xml:space="preserve"><tspan
           style="font-style:normal;font-variant:normal;font-weight:bold;font-stretch:normal;font-size:36.12380219px;font-family:sans-serif;-inkscape-font-specification:'sans-serif, Bold';font-variant-ligatures:normal;font-variant-caps:normal;font-variant-numeric:normal;font-feature-settings:normal;text-align:start;writing-mode:lr-tb;text-anchor:start;fill:#c4e4ff;fill-opacity:1;stroke-width:0.75257921;"
           y="146.8654"
           x="-86.964233"
           id="tspan4530"
           sodipodi:role="line">HS</tspan></text>
    </g>
    <path
       transform="translate(0,-26.066729)"
       sodipodi:nodetypes="cc"
       inkscape:connector-curvature="0"
       id="path4563"
       d="m 164.04166,157.17136 c -23.60738,-10.58333 8.93344,-90.206149 21.14417,-42.35583"
       style="display:inline;fill:none;fill-opacity:1;stroke:#c4e4ff;stroke-width:5;stroke-linecap:round;stroke-linejoin:bevel;stroke-miterlimit:4;stroke-dasharray:none;stroke-opacity:1" />
  </g>
</svg>
